<?xml version="1.0" standalone="no"?>
<!DOCTYPE svg PUBLIC "-//W3C//DTD SVG 1.1//EN"
 "http://www.w3.org/Graphics/SVG/1.1/DTD/svg11.dtd">
<!-- Created with svg_stack (http://github.com/astraw/svg_stack) -->
<svg xmlns="http://www.w3.org/2000/svg" xmlns:sodipodi="http://sodipodi.sourceforge.net/DTD/sodipodi-0.dtd" xmlns:xlink="http://www.w3.org/1999/xlink" version="1.1" width="930.0" height="600.0">
  <defs/>
  <g id="id0:id0" transform="matrix(1.25,0,0,1.25,0.0,0.0)"><g id="id0:graph0" class="graph" transform="scale(1 1) rotate(0) translate(4 476)">
<title>largeRelationshipsDiagram</title>
<polygon fill="#ffffff" stroke="transparent" points="-4,4 -4,-476 384,-476 384,4 -4,4"/>
<text text-anchor="middle" x="73.5" y="-7.2" font-family="Helvetica,sans-Serif" font-size="11.00">Generated by SchemaSpy</text>
<!-- sub_product_ranges -->
<g id="id0:node1" class="node">
<title>sub_product_ranges</title>
<g id="id0:a_node1"><a xlink:href="../../tables/sub_product_ranges.html" xlink:title="sub_product_ranges" target="_top">
<polygon fill="#ffffff" stroke="transparent" points="209,-252 209,-468 372,-468 372,-252 209,-252"/>
<polygon fill="#f5f5f5" stroke="transparent" points="209.5,-446 209.5,-468 372.5,-468 372.5,-446 209.5,-446"/>
<polygon fill="none" stroke="black" points="209.5,-446 209.5,-468 372.5,-468 372.5,-446 209.5,-446"/>
<text text-anchor="start" x="214.5" y="-455.2" font-family="Helvetica,sans-Serif" font-weight="bold" font-size="11.00">sub_product_ranges</text>
<text text-anchor="start" x="333.5" y="-454.2" font-family="Helvetica,sans-Serif" font-size="11.00">[table]</text>
<polygon fill="none" stroke="black" points="209.5,-424 209.5,-446 372.5,-446 372.5,-424 209.5,-424"/>
<image xlink:href="../../images/primaryKeys.png" width="11px" height="12px" preserveAspectRatio="xMinYMin meet" x="214.5" y="-441"/>
<text text-anchor="start" x="241.5" y="-432.2" font-family="Helvetica,sans-Serif" font-size="11.00">product_id</text>
<polygon fill="none" stroke="black" points="209.5,-402 209.5,-424 372.5,-424 372.5,-402 209.5,-402"/>
<image xlink:href="../../images/primaryKeys.png" width="11px" height="12px" preserveAspectRatio="xMinYMin meet" x="214.5" y="-419"/>
<text text-anchor="start" x="241.5" y="-410.2" font-family="Helvetica,sans-Serif" font-size="11.00">sub_product_id</text>
<polygon fill="none" stroke="black" points="209.5,-380 209.5,-402 372.5,-402 372.5,-380 209.5,-380"/>
<text text-anchor="start" x="241.5" y="-388.2" font-family="Helvetica,sans-Serif" font-size="11.00">lat_min</text>
<polygon fill="none" stroke="black" points="209.5,-358 209.5,-380 372.5,-380 372.5,-358 209.5,-358"/>
<text text-anchor="start" x="241.5" y="-366.2" font-family="Helvetica,sans-Serif" font-size="11.00">lat_max</text>
<polygon fill="none" stroke="black" points="209.5,-336 209.5,-358 372.5,-358 372.5,-336 209.5,-336"/>
<text text-anchor="start" x="241.5" y="-344.2" font-family="Helvetica,sans-Serif" font-size="11.00">lon_min</text>
<polygon fill="none" stroke="black" points="209.5,-314 209.5,-336 372.5,-336 372.5,-314 209.5,-314"/>
<text text-anchor="start" x="241.5" y="-322.2" font-family="Helvetica,sans-Serif" font-size="11.00">lon_max</text>
<polygon fill="none" stroke="black" points="209.5,-292 209.5,-314 372.5,-314 372.5,-292 209.5,-292"/>
<text text-anchor="start" x="241.5" y="-300.2" font-family="Helvetica,sans-Serif" font-size="11.00">dates</text>
<polygon fill="none" stroke="black" points="209.5,-270 209.5,-292 372.5,-292 372.5,-270 209.5,-270"/>
<text text-anchor="start" x="241.5" y="-278.2" font-family="Helvetica,sans-Serif" font-size="11.00">bboxes</text>
<polygon fill="#ffffff" stroke="transparent" points="209.5,-252 209.5,-270 288.5,-270 288.5,-252 209.5,-252"/>
<polygon fill="none" stroke="black" points="209.5,-252 209.5,-270 288.5,-270 288.5,-252 209.5,-252"/>
<text text-anchor="start" x="212.5" y="-258.2" font-family="Helvetica,sans-Serif" font-size="11.00">&lt; 1</text>
<polygon fill="#ffffff" stroke="transparent" points="288.5,-252 288.5,-270 330.5,-270 330.5,-252 288.5,-252"/>
<polygon fill="none" stroke="black" points="288.5,-252 288.5,-270 330.5,-270 330.5,-252 288.5,-252"/>
<text text-anchor="start" x="320.5" y="-258.2" font-family="Helvetica,sans-Serif" font-size="11.00"> &#160;</text>
<polygon fill="#ffffff" stroke="transparent" points="330.5,-252 330.5,-270 372.5,-270 372.5,-252 330.5,-252"/>
<polygon fill="none" stroke="black" points="330.5,-252 330.5,-270 372.5,-270 372.5,-252 330.5,-252"/>
<text text-anchor="start" x="362.5" y="-258.2" font-family="Helvetica,sans-Serif" font-size="11.00"> &#160;</text>
</a>
</g>
</g>
<!-- agdc.dataset_type -->
<g id="id0:node3" class="node">
<title>agdc.dataset_type</title>
<g id="id0:a_node3"><a xlink:href="../../../agdc/tables/dataset_type.html" xlink:title="agdc.dataset_type" target="_top">
<polygon fill="#ffffff" stroke="transparent" points="8,-133 8,-349 160,-349 160,-133 8,-133"/>
<polygon fill="#f5f5f5" stroke="transparent" points="8,-327 8,-349 160,-349 160,-327 8,-327"/>
<polygon fill="none" stroke="black" points="8,-327 8,-349 160,-349 160,-327 8,-327"/>
<text text-anchor="start" x="13" y="-336.2" font-family="Helvetica,sans-Serif" font-weight="bold" font-size="11.00">agdc.dataset_type</text>
<text text-anchor="start" x="121" y="-335.2" font-family="Helvetica,sans-Serif" font-size="11.00">[table]</text>
<polygon fill="none" stroke="black" points="8,-305 8,-327 160,-327 160,-305 8,-305"/>
<text text-anchor="start" x="38" y="-313.2" font-family="Helvetica,sans-Serif" font-size="11.00">id</text>
<polygon fill="none" stroke="black" points="8,-283 8,-305 160,-305 160,-283 8,-283"/>
<text text-anchor="start" x="38" y="-291.2" font-family="Helvetica,sans-Serif" font-size="11.00">name</text>
<polygon fill="none" stroke="black" points="8,-261 8,-283 160,-283 160,-261 8,-261"/>
<text text-anchor="start" x="38" y="-269.2" font-family="Helvetica,sans-Serif" font-size="11.00">metadata</text>
<polygon fill="none" stroke="black" points="8,-239 8,-261 160,-261 160,-239 8,-239"/>
<text text-anchor="start" x="38" y="-247.2" font-family="Helvetica,sans-Serif" font-size="11.00">metadata_type_ref</text>
<polygon fill="none" stroke="black" points="8,-217 8,-239 160,-239 160,-217 8,-217"/>
<text text-anchor="start" x="38" y="-225.2" font-family="Helvetica,sans-Serif" font-size="11.00">definition</text>
<polygon fill="none" stroke="black" points="8,-195 8,-217 160,-217 160,-195 8,-195"/>
<text text-anchor="start" x="38" y="-203.2" font-family="Helvetica,sans-Serif" font-size="11.00">added</text>
<polygon fill="none" stroke="black" points="8,-173 8,-195 160,-195 160,-173 8,-173"/>
<text text-anchor="start" x="38" y="-181.2" font-family="Helvetica,sans-Serif" font-size="11.00">added_by</text>
<polygon fill="none" stroke="black" points="8,-151 8,-173 160,-173 160,-151 8,-151"/>
<text text-anchor="start" x="38" y="-159.2" font-family="Helvetica,sans-Serif" font-size="11.00">updated</text>
<polygon fill="#ffffff" stroke="transparent" points="8,-133 8,-151 73,-151 73,-133 8,-133"/>
<polygon fill="none" stroke="black" points="8,-133 8,-151 73,-151 73,-133 8,-133"/>
<text text-anchor="start" x="11" y="-139.2" font-family="Helvetica,sans-Serif" font-size="11.00"> &#160;</text>
<polygon fill="#ffffff" stroke="transparent" points="73,-133 73,-151 112,-151 112,-133 73,-133"/>
<polygon fill="none" stroke="black" points="73,-133 73,-151 112,-151 112,-133 73,-133"/>
<text text-anchor="start" x="102" y="-139.2" font-family="Helvetica,sans-Serif" font-size="11.00"> &#160;</text>
<polygon fill="#ffffff" stroke="transparent" points="112,-133 112,-151 160,-151 160,-133 112,-133"/>
<polygon fill="none" stroke="black" points="112,-133 112,-151 160,-151 160,-133 112,-133"/>
<text text-anchor="start" x="141" y="-139.2" font-family="Helvetica,sans-Serif" font-size="11.00">2 &gt;</text>
</a>
</g>
</g>
<!-- sub_product_ranges&#45;&gt;agdc.dataset_type -->
<g id="id0:edge2" class="edge">
<title>sub_product_ranges:w-&gt;agdc.dataset_type:e</title>
<path fill="none" stroke="black" d="M194.31,-431.31C164.19,-411.22 211.94,-316 161,-316"/>
<polygon fill="black" stroke="black" points="200.76,-432.99 207.59,-438.48 204.63,-433.99 208.5,-435 208.5,-435 208.5,-435 204.63,-433.99 209.41,-431.52 200.76,-432.99 200.76,-432.99"/>
<ellipse fill="none" stroke="black" cx="197.66" cy="-432.18" rx="3.2" ry="3.2"/>
</g>
<!-- product_ranges -->
<g id="id0:node2" class="node">
<title>product_ranges</title>
<g id="id0:a_node2"><a xlink:href="../../tables/product_ranges.html" xlink:title="product_ranges" target="_top">
<polygon fill="#ffffff" stroke="transparent" points="222.5,-37 222.5,-231 358.5,-231 358.5,-37 222.5,-37"/>
<polygon fill="#f5f5f5" stroke="transparent" points="222.5,-209 222.5,-231 358.5,-231 358.5,-209 222.5,-209"/>
<polygon fill="none" stroke="black" points="222.5,-209 222.5,-231 358.5,-231 358.5,-209 222.5,-209"/>
<text text-anchor="start" x="227.5" y="-218.2" font-family="Helvetica,sans-Serif" font-weight="bold" font-size="11.00">product_ranges</text>
<text text-anchor="start" x="319.5" y="-217.2" font-family="Helvetica,sans-Serif" font-size="11.00">[table]</text>
<polygon fill="none" stroke="black" points="222.5,-187 222.5,-209 358.5,-209 358.5,-187 222.5,-187"/>
<image xlink:href="../../images/primaryKeys.png" width="11px" height="12px" preserveAspectRatio="xMinYMin meet" x="227.5" y="-204"/>
<text text-anchor="start" x="254.5" y="-195.2" font-family="Helvetica,sans-Serif" font-size="11.00">id</text>
<polygon fill="none" stroke="black" points="222.5,-165 222.5,-187 358.5,-187 358.5,-165 222.5,-165"/>
<text text-anchor="start" x="254.5" y="-173.2" font-family="Helvetica,sans-Serif" font-size="11.00">lat_min</text>
<polygon fill="none" stroke="black" points="222.5,-143 222.5,-165 358.5,-165 358.5,-143 222.5,-143"/>
<text text-anchor="start" x="254.5" y="-151.2" font-family="Helvetica,sans-Serif" font-size="11.00">lat_max</text>
<polygon fill="none" stroke="black" points="222.5,-121 222.5,-143 358.5,-143 358.5,-121 222.5,-121"/>
<text text-anchor="start" x="254.5" y="-129.2" font-family="Helvetica,sans-Serif" font-size="11.00">lon_min</text>
<polygon fill="none" stroke="black" points="222.5,-99 222.5,-121 358.5,-121 358.5,-99 222.5,-99"/>
<text text-anchor="start" x="254.5" y="-107.2" font-family="Helvetica,sans-Serif" font-size="11.00">lon_max</text>
<polygon fill="none" stroke="black" points="222.5,-77 222.5,-99 358.5,-99 358.5,-77 222.5,-77"/>
<text text-anchor="start" x="254.5" y="-85.2" font-family="Helvetica,sans-Serif" font-size="11.00">dates</text>
<polygon fill="none" stroke="black" points="222.5,-55 222.5,-77 358.5,-77 358.5,-55 222.5,-55"/>
<text text-anchor="start" x="254.5" y="-63.2" font-family="Helvetica,sans-Serif" font-size="11.00">bboxes</text>
<polygon fill="#ffffff" stroke="transparent" points="222.5,-37 222.5,-55 288.5,-55 288.5,-37 222.5,-37"/>
<polygon fill="none" stroke="black" points="222.5,-37 222.5,-55 288.5,-55 288.5,-37 222.5,-37"/>
<text text-anchor="start" x="225.5" y="-43.2" font-family="Helvetica,sans-Serif" font-size="11.00">&lt; 1</text>
<polygon fill="#ffffff" stroke="transparent" points="288.5,-37 288.5,-55 323.5,-55 323.5,-37 288.5,-37"/>
<polygon fill="none" stroke="black" points="288.5,-37 288.5,-55 323.5,-55 323.5,-37 288.5,-37"/>
<text text-anchor="start" x="313.5" y="-43.2" font-family="Helvetica,sans-Serif" font-size="11.00"> &#160;</text>
<polygon fill="#ffffff" stroke="transparent" points="323.5,-37 323.5,-55 358.5,-55 358.5,-37 323.5,-37"/>
<polygon fill="none" stroke="black" points="323.5,-37 323.5,-55 358.5,-55 358.5,-37 323.5,-37"/>
<text text-anchor="start" x="348.5" y="-43.2" font-family="Helvetica,sans-Serif" font-size="11.00"> &#160;</text>
</a>
</g>
</g>
<!-- product_ranges&#45;&gt;agdc.dataset_type -->
<g id="id0:edge1" class="edge">
<title>product_ranges:w-&gt;agdc.dataset_type:e</title>
<path fill="none" stroke="black" d="M210.97,-199.58C169.86,-213.58 215.91,-316 161,-316"/>
<polygon fill="black" stroke="black" points="220.12,-194.16 221.3,-202.07 219.72,-202.31 218.53,-194.4 220.12,-194.16"/>
<polyline fill="none" stroke="black" points="221.5,-198 217.54,-198.59 "/>
<ellipse fill="none" stroke="black" cx="214.38" cy="-199.07" rx="3.2" ry="3.2"/>
</g>
</g>
</g>
  <g id="id1:id1" transform="matrix(1.25,0,0,1.25,585.0,166.25)"><g id="id1:graph0" class="graph" transform="scale(1 1) rotate(0) translate(4 210)">
<title>orphans</title>
<polygon fill="#ffffff" stroke="transparent" points="-4,4 -4,-210 272,-210 272,4 -4,4"/>
<!-- multiproduct_ranges -->
<g id="id1:node1" class="node">
<title>multiproduct_ranges</title>
<g id="id1:a_node1"><a xlink:href="../../tables/multiproduct_ranges.html" xlink:title="multiproduct_ranges" target="_top">
<polygon fill="#ffffff" stroke="transparent" points="8,-4 8,-202 260,-202 260,-4 8,-4"/>
<polygon fill="#f5f5f5" stroke="transparent" points="10,-178 10,-200 258,-200 258,-178 10,-178"/>
<polygon fill="none" stroke="black" points="10,-178 10,-200 258,-200 258,-178 10,-178"/>
<text text-anchor="start" x="15" y="-187.2" font-family="Helvetica,sans-Serif" font-weight="bold" font-size="11.00">multiproduct_ranges</text>
<text text-anchor="start" x="219" y="-186.2" font-family="Helvetica,sans-Serif" font-size="11.00">[table]</text>
<polygon fill="none" stroke="black" points="10,-156 10,-178 155,-178 155,-156 10,-156"/>
<image xlink:href="../../images/primaryKeys.png" width="11px" height="12px" preserveAspectRatio="xMinYMin meet" x="15" y="-173"/>
<text text-anchor="start" x="30" y="-164.2" font-family="Helvetica,sans-Serif" font-size="11.00">wms_product_name</text>
<polygon fill="none" stroke="black" points="155,-156 155,-178 258,-178 258,-156 155,-156"/>
<text text-anchor="start" x="158" y="-164.2" font-family="Helvetica,sans-Serif" font-size="11.00">varchar[128]</text>
<polygon fill="none" stroke="black" points="10,-134 10,-156 155,-156 155,-134 10,-134"/>
<text text-anchor="start" x="30" y="-142.2" font-family="Helvetica,sans-Serif" font-size="11.00">lat_min</text>
<polygon fill="none" stroke="black" points="155,-134 155,-156 258,-156 258,-134 155,-134"/>
<text text-anchor="start" x="158" y="-142.2" font-family="Helvetica,sans-Serif" font-size="11.00">numeric[0]</text>
<polygon fill="none" stroke="black" points="10,-112 10,-134 155,-134 155,-112 10,-112"/>
<text text-anchor="start" x="30" y="-120.2" font-family="Helvetica,sans-Serif" font-size="11.00">lat_max</text>
<polygon fill="none" stroke="black" points="155,-112 155,-134 258,-134 258,-112 155,-112"/>
<text text-anchor="start" x="158" y="-120.2" font-family="Helvetica,sans-Serif" font-size="11.00">numeric[0]</text>
<polygon fill="none" stroke="black" points="10,-90 10,-112 155,-112 155,-90 10,-90"/>
<text text-anchor="start" x="30" y="-98.2" font-family="Helvetica,sans-Serif" font-size="11.00">lon_min</text>
<polygon fill="none" stroke="black" points="155,-90 155,-112 258,-112 258,-90 155,-90"/>
<text text-anchor="start" x="158" y="-98.2" font-family="Helvetica,sans-Serif" font-size="11.00">numeric[0]</text>
<polygon fill="none" stroke="black" points="10,-68 10,-90 155,-90 155,-68 10,-68"/>
<text text-anchor="start" x="30" y="-76.2" font-family="Helvetica,sans-Serif" font-size="11.00">lon_max</text>
<polygon fill="none" stroke="black" points="155,-68 155,-90 258,-90 258,-68 155,-68"/>
<text text-anchor="start" x="158" y="-76.2" font-family="Helvetica,sans-Serif" font-size="11.00">numeric[0]</text>
<polygon fill="none" stroke="black" points="10,-46 10,-68 155,-68 155,-46 10,-46"/>
<text text-anchor="start" x="30" y="-54.2" font-family="Helvetica,sans-Serif" font-size="11.00">dates</text>
<polygon fill="none" stroke="black" points="155,-46 155,-68 258,-68 258,-46 155,-46"/>
<text text-anchor="start" x="158" y="-54.2" font-family="Helvetica,sans-Serif" font-size="11.00">jsonb[2147483647]</text>
<polygon fill="none" stroke="black" points="10,-24 10,-46 155,-46 155,-24 10,-24"/>
<text text-anchor="start" x="30" y="-32.2" font-family="Helvetica,sans-Serif" font-size="11.00">bboxes</text>
<polygon fill="none" stroke="black" points="155,-24 155,-46 258,-46 258,-24 155,-24"/>
<text text-anchor="start" x="158" y="-32.2" font-family="Helvetica,sans-Serif" font-size="11.00">jsonb[2147483647]</text>
<polygon fill="#ffffff" stroke="transparent" points="10,-6 10,-24 87,-24 87,-6 10,-6"/>
<polygon fill="none" stroke="black" points="10,-6 10,-24 87,-24 87,-6 10,-6"/>
<text text-anchor="start" x="13" y="-12.2" font-family="Helvetica,sans-Serif" font-size="11.00">&lt; 0</text>
<polygon fill="#ffffff" stroke="transparent" points="87,-6 87,-24 155,-24 155,-6 87,-6"/>
<polygon fill="none" stroke="black" points="87,-6 87,-24 155,-24 155,-6 87,-6"/>
<text text-anchor="start" x="145" y="-12.2" font-family="Helvetica,sans-Serif" font-size="11.00"> &#160;</text>
<polygon fill="#ffffff" stroke="transparent" points="155,-6 155,-24 258,-24 258,-6 155,-6"/>
<polygon fill="none" stroke="black" points="155,-6 155,-24 258,-24 258,-6 155,-6"/>
<text text-anchor="start" x="239" y="-12.2" font-family="Helvetica,sans-Serif" font-size="11.00">0 &gt;</text>
<polygon fill="none" stroke="black" stroke-width="2" points="9,-5 9,-201 259,-201 259,-5 9,-5"/>
</a>
</g>
</g>
</g>
</g>
</svg>
